<svg width="160" height="160" viewBox="0 0 160 160" fill="none" xmlns="http://www.w3.org/2000/svg">
<rect width="160" height="160" rx="8" fill="#14B8A6"/>
<g filter="url(#filter0_d_1_1)">
<path d="M72.8 45.2C74.4 42.4 77.2 42.4 78.8 45.2L82.4 51.6C83.2 53 84.8 53.6 86 53.2L92.8 50.8C95.6 49.6 98.4 52.4 97.2 55.2L94.8 62C94.4 63.2 95 64.8 96.4 65.6L102.8 69.2C105.6 70.8 105.6 74.8 102.8 76.4L96.4 80C95 80.8 94.4 82.4 94.8 83.6L97.2 90.4C98.4 93.2 95.6 96 92.8 94.8L86 92.4C84.8 92 83.2 92.6 82.4 94L78.8 100.4C77.2 103.2 74.4 103.2 72.8 100.4L69.2 94C68.4 92.6 66.8 92 65.6 92.4L58.8 94.8C56 96 53.2 93.2 54.4 90.4L56.8 83.6C57.2 82.4 56.6 80.8 55.2 80L48.8 76.4C46 74.8 46 70.8 48.8 69.2L55.2 65.6C56.6 64.8 57.2 63.2 56.8 62L54.4 55.2C53.2 52.4 56 49.6 58.8 50.8L65.6 53.2C66.8 53.6 68.4 53 69.2 51.6L72.8 45.2Z" fill="#1E293B"/>
<text x="32" y="115" font-family="sans-serif" font-size="20" fill="#1E293B" font-weight="bold">SLOB-</text>
<text x="32" y="135" font-family="sans-serif" font-size="20" fill="#1E293B" font-weight="bold">SERVIÇOS</text>
<text x="32" y="150" font-family="sans-serif" font-size="8" fill="white">Porque você faz de tudo - e faz bem.</text>
</g>
<defs>
<filter id="filter0_d_1_1" x="28" y="42" width="80" height="120" filterUnits="userSpaceOnUse" color-interpolation-filters="sRGB">
<feFlood flood-opacity="0" result="BackgroundImageFix"/>
<feColorMatrix in="SourceAlpha" type="matrix" values="0 0 0 0 0 0 0 0 0 0 0 0 0 0 0 0 0 0 127 0" result="hardAlpha"/>
<feOffset dy="4"/>
<feGaussianBlur stdDeviation="2"/>
<feComposite in2="hardAlpha" operator="out"/>
<feColorMatrix type="matrix" values="0 0 0 0 0 0 0 0 0 0 0 0 0 0 0 0 0 0 0.25 0"/>
<feBlend mode="normal" in2="BackgroundImageFix" result="effect1_dropShadow_1_1"/>
<feBlend mode="normal" in="SourceGraphic" in2="effect1_dropShadow_1_1" result="shape"/>
</filter>
</defs>
</svg>